Coordinates
version=1
nRows=6
nColumns=36
inDegrees=yes

Units are S.I. units (second, meters, Newtons, ...)
If the header above contains a line with 'inDegrees', this indicates whether rotational values are in degrees (yes) or radians (no).

endheader
time	pelvis_tilt	pelvis_list	pelvis_rotation	pelvis_tx	pelvis_ty	pelvis_tz	hip_flexion_r	hip_adduction_r	hip_rotation_r	knee_angle_r	knee_angle_r_beta	ankle_angle_r	subtalar_angle_r	mtp_angle_r	hip_flexion_l	hip_adduction_l	hip_rotation_l	knee_angle_l	knee_angle_l_beta	ankle_angle_l	subtalar_angle_l	mtp_angle_l	lumbar_extension	lumbar_bending	lumbar_rotation	arm_flex_r	arm_add_r	arm_rot_r	elbow_flex_r	pro_sup_r	arm_flex_l	arm_add_l	arm_rot_l	elbow_flex_l	pro_sup_l
      5.23333330	     -7.00342447	      0.44572208	      5.05635707	      0.24900659	      1.01736316	     -0.03592017	     21.84344511	     -7.62894157	    -19.31893820	     30.04751965	      0.52442815	     12.05230953	    -24.87705696	     -7.49999987	     20.31499502	     -7.37213825	    -20.50917480	     26.25170310	      0.45817865	      3.95941496	    -27.12617820	     -7.49999987	    -20.23559660	     -0.31420774	     -2.56058939	      6.16746235	    -18.23968081	      3.58721039	     72.03140659	     91.78544816	     24.10680174	    -42.99628757	     14.83149488	    136.81239866	     99.42494880
      5.23750000	     -7.03837380	      0.44889841	      5.09149897	      0.25006856	      1.01857166	     -0.03759986	     21.38730717	     -7.55956393	    -19.64968847	     29.13210596	      0.50845117	     11.80287095	    -24.20743565	     -7.49999987	     19.96573459	     -7.25302433	    -20.69931222	     25.40178771	      0.44334483	      3.58056119	    -26.77734282	     -7.49999987	    -19.95857299	     -0.32974862	     -2.58077803	      6.01423780	    -18.23317721	      3.58995000	     71.97645684	     91.88902028	     24.48434658	    -43.08760722	     14.87942657	    137.26817527	     99.42355053
      5.24166670	     -7.04775869	      0.42621453	      5.12363740	      0.25334537	      1.02063966	     -0.03742610	     20.81379654	     -7.41044873	    -19.97559354	     28.22887373	      0.49268679	     11.68567803	    -23.63701592	     -7.49999987	     19.43395084	     -7.16140302	    -20.92113892	     24.37002314	      0.42533714	      3.19566672	    -26.16995371	     -7.49999987	    -19.51655692	     -0.41312702	     -2.58893184	      5.75345407	    -18.12578561	      3.64850449	     71.66851840	     91.05985287	     25.05884923	    -43.26991435	     15.35278252	    137.52152102	     98.30214932
      5.24583330	     -7.12328945	      0.36682690	      5.21016983	      0.25279518	      1.02641358	     -0.03686804	     20.27817928	     -7.17265220	    -20.28231358	     27.14711757	      0.47380658	     11.20262737	    -23.19013385	     -7.49999987	     18.89049361	     -7.00381150	    -21.09245527	     23.19202490	      0.40477719	      2.89416363	    -25.49788526	     -7.49999987	    -19.11113519	     -0.36169393	     -2.73641506	      5.66216540	    -18.02873097	      3.73260475	     71.48191074	     91.29956243	     25.17334023	    -43.30686280	     15.32983311	    137.73332517	     98.65595563
      5.25000000	     -7.10445888	      0.34668797	      5.24616009	      0.25450993	      1.02840126	     -0.03947869	     19.65603354	     -7.08562447	    -20.68312553	     26.11594047	      0.45580915	     10.71199503	    -22.72877078	     -7.49999987	     18.17967477	     -6.80256334	    -21.48058675	     22.00160180	      0.38400039	      2.72041068	    -24.78696500	     -7.49999987	    -18.79242091	     -0.37688335	     -2.88801323	      5.38458566	    -17.87066234	      3.69587220	     71.32311558	     91.40264086	     25.31463147	    -43.40322466	     15.49219736	    138.17886884	     98.66272703
      5.25416670	     -7.25591128	      0.25033190	      5.22459058	      0.25454283	      1.03042960	     -0.03888977	     19.32686074	     -6.89432570	    -21.03229902	     25.16391061	      0.43919309	     10.29331669	    -22.07964839	     -7.49999987	     17.69294782	     -6.72187808	    -21.92162700	     20.86837191	      0.36422180	      2.70305817	    -23.89962301	     -7.49999987	    -18.30826170	     -0.37414632	     -2.86145167	      5.00025524	    -17.70391549	      3.56574889	     71.19223531	     90.55067176	     25.68801917	    -43.43608033	     15.90130410	    138.67016097	     97.53456686
